<?xml version="1.0" standalone="no"?><!DOCTYPE svg PUBLIC "-//W3C//DTD SVG 1.1//EN" "http://www.w3.org/Graphics/SVG/1.1/DTD/svg11.dtd"><svg t="1592288610385" class="icon" viewBox="0 0 1024 1024" version="1.1" xmlns="http://www.w3.org/2000/svg" p-id="5624" xmlns:xlink="http://www.w3.org/1999/xlink" width="200" height="200"><defs><style type="text/css"></style></defs><path d="M897.4 164.2v40.9-16.2c-0.8-13.8-12.2-24.7-26.2-24.7h26.2zM121.6 164.2h40.9-16.2c-13.8 0.8-24.7 12.2-24.7 26.2v-26.2zM121.7 866.7v-40.9V842c0.8 13.8 12.2 24.7 26.2 24.7h-26.2zM897.2 866.6h-40.9 16.2c13.8-0.8 24.7-12.2 24.7-26.2v26.2zM263.8 810.4c22.6 0 41-18.3 41-41V553c0-22.6-18.3-41-41-41-22.6 0-41 18.3-41 41v216.5c0.1 22.6 18.4 40.9 41 40.9zM757.3 810.4c22.6 0 41-18.3 41-41V442.9c0-22.6-18.3-41-41-41-22.6 0-41 18.3-41 41v326.5c0.1 22.7 18.4 41 41 41zM510.6 810.4c22.6 0 41-18.3 41-41V301.3c0-22.6-18.3-41-41-41-22.6 0-41 18.3-41 41v468.2c0 22.6 18.4 40.9 41 40.9z" fill="#ffffff" p-id="5625"></path><path d="M979 887.1V144.5c-2.9-33.8-30.5-60.4-64.6-62H103.7c-34.4 2.1-61.9 29.6-63.8 64V884c1.8 34.4 29.1 62.1 63.4 64.4h815.8c31.8-3.7 56.9-29.3 59.9-61.3z m-857.2-20.6V164.4h775.3v702.1H121.8z" fill="#ffffff" p-id="5626"></path></svg>